<svg xmlns="http://www.w3.org/2000/svg" width="169" height="56" color="#000"><g fill-rule="nonzero" fill="none"><path d="M31.586 52.059c-4.135 0-7.584-.928-10.453-2.8-6.26-4.086-9.28-12.443-10.711-18.736-1.652-7.254-1.449-12.928.616-17.366C14.482 5.771 21.117 1.024 29.243.15c8.871-.96 17.694 2.768 23.031 9.734 4.398 5.744 6.302 14.021 4.972 21.605-1.335 7.616-5.9 14.33-11.913 17.52-2.392 1.27-5.16 2.112-8.71 2.645-1.786.272-3.46.406-5.037.406zm.424-49.947c-.842 0-1.69.043-2.537.139-7.364.794-13.377 5.098-16.504 11.797-1.86 3.995-2.016 9.227-.472 16.005 1.347 5.91 4.141 13.734 9.805 17.435 3.502 2.288 8.083 2.965 14 2.075 3.303-.496 5.856-1.27 8.028-2.422 5.445-2.89 9.59-9.029 10.819-16.021 1.234-7.024-.515-14.672-4.57-19.963-4.377-5.706-11.323-9.045-18.569-9.045z" fill="#00FFAF"/><path d="M23.187 47.653c-4.184 0-7.67-.784-10.572-2.368C6.211 41.792 3.116 34.63 1.647 29.237-.06 22.987.156 18.08 2.296 14.245l.928.512-.928-.512C5.69 8.16 12.17 4.14 20.06 3.221c9.113-1.056 18.58 2.16 24.12 8.198 4.533 4.944 6.49 12.08 5.117 18.624-1.378 6.544-6.045 12.304-12.186 15.029-2.424 1.072-5.23 1.787-8.829 2.24-1.807.23-3.502.341-5.095.341zm.365-42.517c-1.078 0-2.162.064-3.245.187-7.31.848-13.05 4.384-16.156 9.946-1.86 3.334-2.01 7.723-.455 13.414 1.362 4.997 4.194 11.61 9.938 14.746 3.6 1.963 8.303 2.55 14.375 1.782 3.384-.427 6.002-1.083 8.228-2.075 5.53-2.453 9.735-7.637 10.974-13.53 1.239-5.894-.526-12.32-4.602-16.769-4.441-4.832-11.672-7.701-19.057-7.701z" fill="#00B9C3"/><path d="M23.187 55.808c-4.184 0-7.67-.784-10.572-2.368-6.404-3.493-9.499-10.656-10.968-16.048C-.06 31.142.156 26.235 2.296 22.4l.928.512-.928-.512C5.69 16.315 12.17 12.293 20.06 11.376c9.113-1.061 18.58 2.16 24.12 8.197 4.533 4.944 6.49 12.08 5.117 18.624-1.378 6.544-6.045 12.304-12.186 15.03-2.424 1.072-5.23 1.786-8.829 2.24-1.807.229-3.502.341-5.095.341zm.365-42.517c-1.078 0-2.162.064-3.245.186-7.31.848-13.05 4.384-16.156 9.947-1.86 3.333-2.01 7.723-.455 13.413 1.362 4.998 4.194 11.611 9.938 14.747 3.6 1.963 8.303 2.55 14.375 1.781 3.384-.426 6.002-1.082 8.228-2.074 5.53-2.454 9.735-7.638 10.974-13.531 1.239-5.893-.526-12.32-4.602-16.768-4.441-4.832-11.672-7.701-19.057-7.701z" fill="#00D7D8"/><ellipse fill="#00FFAF" cx="56.447" cy="25.483" rx="2.43" ry="2.416"/><ellipse fill="#00D7D8" cx="21.363" cy="12.347" rx="2.43" ry="2.416"/><ellipse fill="#00B9C3" cx="33.512" cy="44.965" rx="2.43" ry="2.416"/><g fill="#00D7D8"><path d="M70.264 22.96c.186-3.288 3.016-4.38 5.872-4.38 3.1 0 5.846 1.392 5.846 4.443 0 3.495-2.476 4.505-5.827 4.505-1.229 0-2.997.144-2.997 1.916v.543h8.72v2.908H70.097v-3.476c0-3.794 3.184-4.642 6.059-4.642 1.061 0 2.643-.306 2.643-1.698 0-1.173-1.022-1.815-2.662-1.815-1.312 0-2.663.542-2.747 1.697h-3.125zM92.304 18.761c2.765 0 5.055 1.21 5.055 3.838 0 1.173-.54 2.259-1.936 2.889 1.852.649 2.624 2.465 2.31 4.1-.438 2.284-2.393 3.313-5.307 3.313H85.12V18.768h7.184v-.007zm-4 5.491h3.955c1.267 0 1.89-.505 1.89-1.335s-.623-1.435-1.851-1.435h-3.994v2.77zm0 5.897h3.994c1.46 0 2.141-.624 2.141-1.616 0-.992-.746-1.653-2.186-1.653h-3.956v3.27h.007zM113.592 32.895h-3.602l-3.723-4.643h-2.354v4.643h-3.248V18.76h6.907c3.518 0 5.39 2.284 5.39 4.768-.02 1.834-.586 3.475-3.37 4.443l3.993 4.686v.237h.007zm-9.68-11.426v4.119h3.705c1.499 0 2.142-1.092 2.142-1.978-.02-.967-.67-2.14-2.187-2.14h-3.66zM126.5 30.474h-7.474l-1.06 2.42h-3.5l6.535-14.133h3.537l6.534 14.134h-3.518l-1.054-2.421zm-3.73-8.524l-2.522 5.734h5.017l-2.496-5.734zM133.034 32.895V18.76h3.228v14.134zM150.058 27.947l-.206-4.443V18.76h3.267v14.134h-2.791l-7.242-9.048.122 4.642v4.406h-3.286V18.76h2.791zM165.397 22.175c-.81-.83-2.226-1.192-3.37-1.192-1.435 0-2.605.586-2.605 1.553 0 1.292 1.267 1.536 3.145 1.698 2.875.243 5.595 1.31 5.595 4.586 0 3.151-2.997 4.524-6.142 4.543-2.521.019-5.139-.93-6.367-2.908l1.936-1.96c1.125 1.392 2.978 1.997 4.457 1.997 1.73 0 2.913-.667 2.913-1.678.02-1.192-.958-1.735-2.932-1.897-3.081-.28-5.827-1.03-5.789-4.362.02-2.808 2.766-4.3 5.763-4.3 2.244 0 3.936.488 5.434 2.185l-2.038 1.735z"/></g></g></svg>