<svg width="152" height="31" viewBox="0 0 152 31" fill="none" xmlns="http://www.w3.org/2000/svg">
<path d="M17.0051 10.1796C17.0051 7.75087 15.3337 6.3584 11.6587 6.3584H4.90102L0 25.2833H6.53572C12.2908 25.2833 15.0383 22.6765 15.0383 18.9981C15.0383 17.2126 13.8505 16.035 10.6944 15.9276L10.8429 15.4992C14.7413 15.2843 17.0066 13.0705 17.0066 10.1781L17.0051 10.1796ZM6.86939 20.9631H6.57245L7.575 17.3215H8.31735C9.65357 17.3215 10.1372 17.7852 10.1372 18.4637C10.1372 19.7856 8.72602 20.9631 6.86939 20.9631ZM8.50255 14.1436H8.35408L9.28163 10.7154H10.024C11.2867 10.7154 11.6954 11.179 11.6954 11.8223C11.6954 13.1794 10.2107 14.1436 8.50255 14.1436Z" fill="#0F1C14"/>
<path d="M32.1549 10.2874C32.1549 8.10895 30.7069 6.07324 27.1789 6.07324C20.8299 6.07324 16.0391 13.0356 16.0391 19.6064C16.0391 23.1774 18.1559 25.534 21.6457 25.534C26.3982 25.534 29.034 22.6062 30.0365 18.4995H24.5416C24.2079 19.8919 23.5391 20.7854 22.6482 20.7854C21.7574 20.7854 21.4605 20.179 21.4605 18.8218C21.4605 18.4288 21.4972 18.0358 21.5355 17.6075C28.2564 17.3926 32.1549 14.537 32.1549 10.2874ZM26.1396 10.5377C26.6967 10.5377 27.1054 10.8954 27.1054 11.4665C27.1054 12.5027 25.6207 13.7524 22.613 13.8952C23.4671 12.0023 24.7299 10.5392 26.1411 10.5392L26.1396 10.5377Z" fill="#0F1C14"/>
<path d="M44.3708 6.3584H34.1968L32.9723 11.2512H35.7197L32.0432 25.2833H37.7248L41.4014 11.2512H43.1463L44.3708 6.3584Z" fill="#0F1C14"/>
<path d="M55.8075 6.3584H45.6703L44.4458 11.2512H46.1907L42.5142 25.2833H48.1958L51.8723 11.2512H54.5815L55.8075 6.3584Z" fill="#0F1C14"/>
<path d="M61.673 18.4995C61.3394 19.8919 60.6705 20.7854 59.7797 20.7854C58.8888 20.7854 58.5919 20.179 58.5919 18.8218C58.5919 18.4288 58.6286 18.0358 58.6654 17.6075C65.3863 17.3926 69.2848 14.537 69.2848 10.2874C69.2848 8.10895 67.8368 6.07324 64.3087 6.07324C57.9598 6.07324 53.1689 13.0356 53.1689 19.6064C53.1689 23.1774 55.2858 25.534 58.7756 25.534C63.5281 25.534 66.1638 22.6062 67.1664 18.4995H61.6715H61.673ZM63.2695 10.5362C63.8266 10.5362 64.2353 10.8939 64.2353 11.465C64.2353 12.5013 62.7506 13.751 59.7429 13.8937C60.597 12.0008 61.8598 10.5377 63.271 10.5377L63.2695 10.5362Z" fill="#0F1C14"/>
<path d="M77.5654 16.8564L77.7138 16.428C81.2786 16.2853 83.8409 13.964 83.9143 10.5726C83.9893 7.96577 82.4296 6.3584 78.2327 6.3584H71.7353L66.8342 25.2833H72.3291L74.0373 18.7125H74.9648C76.0409 18.7125 76.4495 19.1055 76.1526 20.2831L74.9266 25.2818H80.6082L81.3873 20.5333C81.7592 18.2474 80.5332 16.9624 77.5623 16.8549L77.5654 16.8564ZM75.2266 14.7132H75.0414L76.1174 10.7139H76.8597C78.2342 10.7139 78.7164 11.1423 78.6796 11.9283C78.6046 13.571 77.0465 14.7132 75.2266 14.7132Z" fill="#0F1C14"/>
<path d="M95.2393 13.9287H90.3383L91.0439 11.2512H96.0184L97.2811 6.3584H86.7367L81.8357 25.2833H87.4041L89.0755 18.8568H93.9398L95.2393 13.9287Z" fill="#0F1C14"/>
<path d="M104.114 6.3584H98.5441L93.6431 25.2833H103.742L105.005 20.392H100.474L104.114 6.3584Z" fill="#0F1C14"/>
<path d="M110.908 14.4291H110.463L111.54 6.3584H105.376L106.527 19.6413L105.041 25.2833H110.611L112.096 19.6413L120.043 6.3584H113.656L110.908 14.4291Z" fill="#0F1C14"/>
<path fill-rule="evenodd" clip-rule="evenodd" d="M135.944 30.7859C144.59 30.7859 151.6 24.0453 151.6 15.7304C151.6 7.41541 144.59 0.674805 135.944 0.674805C127.298 0.674805 120.289 7.41541 120.289 15.7304C120.289 24.0453 127.298 30.7859 135.944 30.7859Z" fill="#26FE7E"/>
<path d="M135.945 2.75195C128.015 2.75195 122.449 8.55931 122.449 15.7309C122.449 22.9025 128.015 28.7098 135.945 28.7098C143.875 28.7098 149.441 22.9025 149.441 15.7309C149.441 8.55931 143.875 2.75195 135.945 2.75195ZM135.945 26.4356C129.325 26.4356 124.814 21.6075 124.814 15.7309C124.814 9.85432 129.325 5.02615 135.945 5.02615C142.566 5.02615 147.076 9.85432 147.076 15.7309C147.076 21.6075 142.566 26.4356 135.945 26.4356Z" fill="#0F1C14"/>
<path d="M129.107 18.3193C129.107 17.48 129.761 16.7446 131.143 16.7446H131.836L132.345 14.6809H131.617C130.745 14.6809 130.308 14.4357 130.308 13.7363C130.308 12.897 130.964 12.1976 132.346 12.1976H133.001L133.583 9.95801H132.091C129.035 9.95801 127.726 11.5674 127.726 13.5618C127.726 14.7516 128.308 15.4164 129.8 15.5563L129.69 15.9067C127.435 16.0812 126.562 17.3762 126.562 19.1601C126.562 20.6988 127.471 21.4689 129.182 21.4689H132.348L132.929 19.2654H130.419C129.546 19.2654 129.112 19.0202 129.112 18.3208L129.107 18.3193Z" fill="#0F1C14"/>
<path d="M138.601 16.746L139.111 14.6809H137.4L138.057 12.1976H139.765L140.346 9.95801H134.527L133.945 12.1976H135.69L135.036 14.6809H133.289L132.781 16.746H134.527L133.289 21.4674H135.654L136.891 16.746H138.601Z" fill="#0F1C14"/>
<path d="M145.333 12.3375C145.333 10.7988 144.424 9.95801 142.713 9.95801H141.294L140.712 12.1976H141.476C142.348 12.1976 142.785 12.4774 142.785 13.1768C142.785 14.0161 142.13 14.6809 140.748 14.6809H140.057L139.547 16.7446H140.275C141.147 16.7446 141.584 17.0589 141.584 17.7598C141.584 18.5991 140.93 19.2639 139.547 19.2639H137.182L136.601 21.4674H139.802C142.858 21.4674 144.167 19.9287 144.167 17.9343C144.167 16.7446 143.586 16.0797 142.094 15.9052L142.203 15.5548C144.458 15.3803 145.333 14.1199 145.333 12.336V12.3375Z" fill="#0F1C14"/>
</svg>
