<?xml version="1.0" encoding="UTF-8"?>
<svg xmlns="http://www.w3.org/2000/svg" xmlns:xlink="http://www.w3.org/1999/xlink" width="201.986" height="35" viewBox="0 0 201.986 35">
  <defs>
    <linearGradient id="linear-gradient" x2="0" y2="1" gradientUnits="objectBoundingBox">
      <stop offset="0" stop-color="#ffea1c"/>
      <stop offset="1" stop-color="#ff5f6a"/>
    </linearGradient>
    <linearGradient id="linear-gradient-2" y1="-0.08" xlink:href="#linear-gradient"/>
    <linearGradient id="linear-gradient-3" x1="0.819" x2="0.818" xlink:href="#linear-gradient"/>
    <linearGradient id="linear-gradient-4" x1="1" x2="1" xlink:href="#linear-gradient"/>
    <linearGradient id="linear-gradient-5" y1="-0.106" xlink:href="#linear-gradient"/>
  </defs>
  <g id="Group_15" data-name="Group 15" transform="translate(-772.766 -459)">
    <g id="Group_14" data-name="Group 14" transform="translate(839 461.32)">
      <path id="Path_16" data-name="Path 16" d="M1368.109,1584.388a1.674,1.674,0,0,1,.552-1.38,2.4,2.4,0,0,1,1.553-.449,3.942,3.942,0,0,1,1.139.155c.345.1.575.179.69.224v9.9a7,7,0,0,1,2.381-1.881,7.546,7.546,0,0,1,3.485-.776,8.972,8.972,0,0,1,3.5.673,8.37,8.37,0,0,1,2.795,1.9,8.847,8.847,0,0,1,1.864,2.9,9.768,9.768,0,0,1,.673,3.675,9.591,9.591,0,0,1-.69,3.658,8.435,8.435,0,0,1-1.933,2.9,9.031,9.031,0,0,1-2.95,1.9,9.917,9.917,0,0,1-3.744.69,10.888,10.888,0,0,1-3.744-.621,7.965,7.965,0,0,1-2.95-1.864,8.485,8.485,0,0,1-1.933-3.106,12.6,12.6,0,0,1-.69-4.382Zm9.249,20.533a5.317,5.317,0,0,0,2.157-.431,5.189,5.189,0,0,0,1.691-1.173,5.114,5.114,0,0,0,1.087-1.76,6.328,6.328,0,0,0,.379-2.226,6.476,6.476,0,0,0-.379-2.243,5.092,5.092,0,0,0-1.087-1.777,5.2,5.2,0,0,0-1.691-1.173,5.325,5.325,0,0,0-2.157-.431,5.407,5.407,0,0,0-2.191.431,4.894,4.894,0,0,0-1.674,1.191,5.635,5.635,0,0,0-1.087,1.794,6.117,6.117,0,0,0-.4,2.209,6.31,6.31,0,0,0,.4,2.278,4.963,4.963,0,0,0,2.795,2.9,5.5,5.5,0,0,0,2.157.414" transform="translate(-1368.109 -1582.559)" fill="#081f41"/>
      <path id="Path_17" data-name="Path 17" d="M1437.216,1618.72q-.277.173-.862.483a8.8,8.8,0,0,1-1.467.587,16.646,16.646,0,0,1-2.036.483,14.435,14.435,0,0,1-2.536.208,10.83,10.83,0,0,1-3.606-.587,8.372,8.372,0,0,1-2.933-1.742,8.205,8.205,0,0,1-1.984-2.83,9.6,9.6,0,0,1-.724-3.848,9.785,9.785,0,0,1,.707-3.779,8.647,8.647,0,0,1,1.967-2.933,8.867,8.867,0,0,1,2.968-1.9,10.135,10.135,0,0,1,3.744-.673,9.9,9.9,0,0,1,3.175.466,7.344,7.344,0,0,1,2.329,1.241,5.083,5.083,0,0,1,1.915,4.021,5.221,5.221,0,0,1-.449,2.191,3.959,3.959,0,0,1-1.587,1.691,9.465,9.465,0,0,1-3.071,1.1,25.032,25.032,0,0,1-4.9.4q-.69,0-1.294-.017t-1.294-.052a4.285,4.285,0,0,0,1.708,2.847,6.656,6.656,0,0,0,4.089,1.087,9.272,9.272,0,0,0,1.656-.138,9.4,9.4,0,0,0,1.363-.345,9.8,9.8,0,0,0,1.035-.414q.431-.207.638-.311Zm-12.112-8.179q.794.034,1.518.034h1.45a15.8,15.8,0,0,0,3.071-.241,6.235,6.235,0,0,0,1.829-.621,1.936,1.936,0,0,0,.863-.863,2.51,2.51,0,0,0,.207-1,2.165,2.165,0,0,0-1.052-1.967,4.843,4.843,0,0,0-2.605-.656,5.278,5.278,0,0,0-2.243.448,4.859,4.859,0,0,0-1.622,1.191,5.44,5.44,0,0,0-1.018,1.708,6.172,6.172,0,0,0-.4,1.967" transform="translate(-1400.492 -1594.563)" fill="#081f41"/>
      <path id="Path_18" data-name="Path 18" d="M1470.664,1592.649a1.665,1.665,0,0,1,.552-1.4,2.406,2.406,0,0,1,1.518-.432,4.144,4.144,0,0,1,1.156.155q.534.155.707.225v4.52h5a2.229,2.229,0,0,1,1.6.466,1.847,1.847,0,0,1,.466,1.363,3.32,3.32,0,0,1-.173,1.087,6.609,6.609,0,0,1-.276.707H1474.6v7.7a3.784,3.784,0,0,0,.242,1.466,2.277,2.277,0,0,0,.673.915,2.524,2.524,0,0,0,1,.483,5,5,0,0,0,1.19.138,5.45,5.45,0,0,0,1.863-.311,5.276,5.276,0,0,0,1.243-.586l1.588,2.622q-.277.207-.776.517a7.137,7.137,0,0,1-1.225.587,10.975,10.975,0,0,1-1.622.466,9.535,9.535,0,0,1-1.967.19,6.181,6.181,0,0,1-4.59-1.57,5.607,5.607,0,0,1-1.553-4.123Z" transform="translate(-1430.821 -1587.611)" fill="#081f41"/>
      <path id="Path_19" data-name="Path 19" d="M1504.363,1592.649a1.665,1.665,0,0,1,.552-1.4,2.407,2.407,0,0,1,1.518-.432,4.142,4.142,0,0,1,1.156.155q.534.155.708.225v4.52h5a2.229,2.229,0,0,1,1.6.466,1.848,1.848,0,0,1,.466,1.363,3.327,3.327,0,0,1-.172,1.087,6.617,6.617,0,0,1-.276.707H1508.3v7.7a3.782,3.782,0,0,0,.242,1.466,2.279,2.279,0,0,0,.673.915,2.523,2.523,0,0,0,1,.483,5,5,0,0,0,1.19.138,5.453,5.453,0,0,0,1.863-.311,5.284,5.284,0,0,0,1.242-.586l1.587,2.622q-.277.207-.776.517a7.135,7.135,0,0,1-1.225.587,10.975,10.975,0,0,1-1.622.466,9.536,9.536,0,0,1-1.967.19,6.18,6.18,0,0,1-4.59-1.57,5.608,5.608,0,0,1-1.553-4.123Z" transform="translate(-1451.427 -1587.611)" fill="#081f41"/>
      <path id="Path_20" data-name="Path 20" d="M1551.494,1618.72q-.276.173-.863.483a8.792,8.792,0,0,1-1.467.587,16.639,16.639,0,0,1-2.036.483,14.435,14.435,0,0,1-2.536.208,10.83,10.83,0,0,1-3.606-.587,8.371,8.371,0,0,1-2.934-1.742,8.207,8.207,0,0,1-1.984-2.83,9.6,9.6,0,0,1-.725-3.848,9.788,9.788,0,0,1,.707-3.779,8.651,8.651,0,0,1,1.967-2.933,8.865,8.865,0,0,1,2.968-1.9,10.133,10.133,0,0,1,3.744-.673,9.9,9.9,0,0,1,3.174.466,7.349,7.349,0,0,1,2.33,1.241,5.082,5.082,0,0,1,1.915,4.021,5.219,5.219,0,0,1-.448,2.191,3.958,3.958,0,0,1-1.587,1.691,9.461,9.461,0,0,1-3.072,1.1,25.027,25.027,0,0,1-4.9.4q-.691,0-1.294-.017t-1.294-.052a4.285,4.285,0,0,0,1.708,2.847,6.655,6.655,0,0,0,4.089,1.087,9.276,9.276,0,0,0,1.657-.138,9.392,9.392,0,0,0,1.363-.345,9.8,9.8,0,0,0,1.035-.414q.431-.207.638-.311Zm-12.113-8.179q.794.034,1.518.034h1.449a15.8,15.8,0,0,0,3.071-.241,6.235,6.235,0,0,0,1.829-.621,1.936,1.936,0,0,0,.862-.863,2.508,2.508,0,0,0,.207-1,2.165,2.165,0,0,0-1.052-1.967,4.843,4.843,0,0,0-2.605-.656,5.28,5.28,0,0,0-2.243.448,4.863,4.863,0,0,0-1.622,1.191,5.44,5.44,0,0,0-1.018,1.708,6.176,6.176,0,0,0-.4,1.967" transform="translate(-1470.372 -1594.563)" fill="#081f41"/>
      <path id="Path_21" data-name="Path 21" d="M1584.818,1608.85a6.251,6.251,0,0,1,1.95-4.917,7.82,7.82,0,0,1,5.4-1.742,8.811,8.811,0,0,1,3.537.6,1.962,1.962,0,0,1,1.363,1.846,2.2,2.2,0,0,1-.327,1.139,2.3,2.3,0,0,1-.535.69,9.525,9.525,0,0,0-1.45-.517,7.316,7.316,0,0,0-1.967-.242q-4.038,0-4.038,4.279V1620h-3.934Z" transform="translate(-1500.625 -1594.563)" fill="#081f41"/>
      <path id="Path_22" data-name="Path 22" d="M1620.684,1589.6a8.941,8.941,0,0,1,.517-3.209,5.533,5.533,0,0,1,1.467-2.192,5.953,5.953,0,0,1,2.243-1.242,9.691,9.691,0,0,1,2.847-.4,8.6,8.6,0,0,1,4,.673,1.965,1.965,0,0,1,1.173,1.708,1.709,1.709,0,0,1-.327,1.035,2.667,2.667,0,0,1-.708.69,4.265,4.265,0,0,0-1.5-.725,7.208,7.208,0,0,0-2.019-.276,3.582,3.582,0,0,0-2.9,1.035,4.459,4.459,0,0,0-.863,2.933v1.035h5.176a2.228,2.228,0,0,1,1.6.466,1.847,1.847,0,0,1,.466,1.363,3.325,3.325,0,0,1-.172,1.087,6.6,6.6,0,0,1-.276.708h-6.8v13.7h-3.934Z" transform="translate(-1522.557 -1582.559)" fill="#081f41"/>
      <path id="Path_23" data-name="Path 23" d="M1654.818,1584.388a1.675,1.675,0,0,1,.552-1.38,2.4,2.4,0,0,1,1.552-.449,3.952,3.952,0,0,1,1.139.156q.517.155.69.224v25.053h-3.934Z" transform="translate(-1543.43 -1582.559)" fill="#081f41"/>
      <path id="Path_24" data-name="Path 24" d="M1674.182,1605.261a1.673,1.673,0,0,1,.552-1.38,2.342,2.342,0,0,1,1.518-.449,4.142,4.142,0,0,1,1.156.155q.535.156.707.225v9.213a4.667,4.667,0,0,0,1.087,3.244,4.306,4.306,0,0,0,3.364,1.208,4.44,4.44,0,0,0,3.313-1.225,4.931,4.931,0,0,0,1.208-3.606v-7.385a1.673,1.673,0,0,1,.552-1.38,2.342,2.342,0,0,1,1.518-.449,4.145,4.145,0,0,1,1.157.155q.534.156.707.225v15.114a11.638,11.638,0,0,1-.656,4.158,7.033,7.033,0,0,1-4.762,4.417,13.243,13.243,0,0,1-3.761.5,19.885,19.885,0,0,1-2.589-.155q-1.173-.156-2.087-.363t-1.5-.4q-.588-.19-.828-.293.276-.725.517-1.466t.483-1.467c.16.069.414.161.759.276a11.934,11.934,0,0,0,1.242.328q.724.155,1.639.258a17.3,17.3,0,0,0,1.949.1,9.182,9.182,0,0,0,2.416-.293,4.1,4.1,0,0,0,1.812-1.018,4.7,4.7,0,0,0,1.139-1.916,9.569,9.569,0,0,0,.4-2.985,4.693,4.693,0,0,1-2.157,1.6,8.4,8.4,0,0,1-3.227.6,9.768,9.768,0,0,1-3.071-.466,6.846,6.846,0,0,1-2.416-1.346,6.1,6.1,0,0,1-1.57-2.191,7.471,7.471,0,0,1-.57-3Z" transform="translate(-1555.271 -1595.323)" fill="#081f41"/>
    </g>
    <g id="Group_13" data-name="Group 13" transform="translate(772.766 459)">
      <path id="Path_25" data-name="Path 25" d="M1532.193,1487.574l-26.355,15.216-.917.529-6.939,4.006v5.452l40.821-23.568a3.8,3.8,0,0,1,2.494-.474l.023,0a3.8,3.8,0,0,1,.455.1c.034.01.068.019.1.029a7.986,7.986,0,0,0-9.684-1.3" transform="translate(-1487.292 -1486.498)" fill="url(#linear-gradient)"/>
      <path id="Path_26" data-name="Path 26" d="M1473.688,1493.825l-.078,0-.109.005-.06.005-.024,0-.142.017-.072.012-.117.021-.082.018-.1.024-.088.024c-.046.013-.092.028-.138.043l-.074.027-.015.006-.076.03-.087.035-.026.012-.045.021c-.056.026-.11.053-.164.081l-.053.028,0,0-.1.056-.041.026c-.075.047-.14.09-.2.137l-.024.017-.088.068-.036.029a3.305,3.305,0,0,0-.289.267l-.023.024q-.045.047-.087.1l-.01.012c-.07.082-.127.154-.178.225a3.232,3.232,0,0,0-.6,1.888V1520.9a5.028,5.028,0,0,0,2.288,4.213l.455.263a5,5,0,0,0,1.981.539v-25.478a.467.467,0,0,1,.7-.4l5.266,3.04v0l6.939,4.006,4.724-2.727-7.08-4.088-10.394-6-.045-.024c-.046-.026-.093-.052-.14-.075l-.036-.017c-.023-.012-.047-.021-.07-.032l-.094-.042-.02-.008c-.042-.017-.086-.033-.129-.049l-.066-.025c-.052-.017-.105-.033-.158-.048l-.043-.012c-.052-.014-.105-.026-.158-.037l-.051-.011c-.052-.01-.1-.018-.155-.026l-.056-.008c-.044-.006-.088-.01-.132-.014l-.076-.006h-.013l-.1,0h-.11" transform="translate(-1470.464 -1490.979)" fill="url(#linear-gradient-2)"/>
      <path id="Path_27" data-name="Path 27" d="M1476.282,1489.148a3.81,3.81,0,0,1,1.1-.128l.067,0h.026l.108.007.1.009.062.007c.042.005.084.012.126.019l.085.013.02,0,.025.005.112.025.087.019.047.012.1.028.1.028.054.017.005,0c.033.011.065.024.1.036s.078.027.117.043l.022.009c.039.016.078.034.117.052l.087.039.017.009c.047.023.093.047.139.072s.075.038.112.06l.009.005L1497,1499.809l3.617-2.088,1.108-.639-14.4-8.311a12.933,12.933,0,0,0-5.9-1.791,7.442,7.442,0,0,0-5.145,2.168" transform="translate(-1474.022 -1486.793)" fill="url(#linear-gradient-3)"/>
      <path id="Path_28" data-name="Path 28" d="M1558.721,1532.521l11.663,6.734V1533.8l-6.938-4.006Z" transform="translate(-1524.432 -1512.972)" fill="url(#linear-gradient-4)"/>
      <path id="Path_29" data-name="Path 29" d="M1530.7,1494.184l-41.752,24.106v0h0v-14.9l-4.725-2.728v25.208a4.691,4.691,0,0,0,1.949-.524c5.183-2.8,20.406-11.781,20.406-11.781l11.156-6.444,12.339-7.137a.473.473,0,0,1,.709.409v25.478a5,5,0,0,0,1.963-.525l.562-.324a5.03,5.03,0,0,0,2.214-4.168v-23.889a3.178,3.178,0,0,0-.889-2.221l-.079-.076a3.281,3.281,0,0,0-.858-.6l-.036-.017c-.062-.029-.125-.056-.188-.081l-.049-.019c-.066-.024-.131-.047-.2-.067l-.028-.009a3.188,3.188,0,0,0-2.494.31" transform="translate(-1478.878 -1490.932)" fill="url(#linear-gradient-5)"/>
      <path id="Path_30" data-name="Path 30" d="M1562.591,1514.246v14.917l-12.91-7.454-4.72,2.727s15.221,8.983,20.4,11.782a4.691,4.691,0,0,0,1.936.524l-.014-25.212Z" transform="translate(-1516.019 -1501.805)" fill="url(#linear-gradient-4)"/>
    </g>
  </g>
</svg>
